<?xml version="1.0"?>
<svg id="Ebene_1" data-name="Ebene 1" xmlns="http://www.w3.org/2000/svg" width="129.6054" height="36.067" viewBox="0 0 367.3854 102.237"> <title>CeTI_MZ_RGB_Subline</title> <path d="M231.0521.3849H219.8234V46.0693h11.2287Zm-17.7729,10.01V.3849H179.5933v10.01h11.2286V46.0693h11.2287V10.3945ZM168.6861,25.2163H158.42a6.0152,6.0152,0,0,1,.5777-2.695,5.1978,5.1978,0,0,1,9.111,0,6.0152,6.0152,0,0,1,.5777,2.695M179.0806,32.21V27.526c0-9.047-5.5182-16.3617-15.5279-16.3617-9.047,0-15.4631,6.3521-15.4631,17.6451,0,14.8858,8.79,17.6448,16.4257,17.6448,6.4165,0,9.8812-1.9248,13.41-5.4539l-6.2881-6.288A8.59,8.59,0,0,1,164.5153,37.6c-3.914,0-6.0956-2.5665-6.0956-5.39Zm-34.7122-.6417H132.9473c-.7058,2.5665-2.1176,4.8765-5.8388,4.8765a5.4514,5.4514,0,0,1-4.4273-1.9251c-1.0266-1.3475-1.7327-2.9514-1.7327-11.2927s.7061-9.9452,1.7327-11.2927a5.4514,5.4514,0,0,1,4.4273-1.9251c3.7212,0,5.133,2.31,5.8388,4.8765h11.4211C142.7,4.8122,135.7062,0,127.0441,0A17.0063,17.0063,0,0,0,114.34,5.133c-4.8125,4.8122-4.62,11.2287-4.62,18.0941s-.1924,13.2819,4.62,18.0941a17.0063,17.0063,0,0,0,12.7042,5.133c8.6621,0,15.6559-4.8122,17.3243-14.8858" style="fill: #00305d"></path> <g> <path d="M352.584,92.31c0,1.8668-.22,3.2944-1.9325,3.2944s-1.9328-1.4276-1.9328-3.2944.22-3.2721,1.9328-3.2721,1.9325,1.4057,1.9325,3.2721m2.8548,0c0-1.7128-.0219-3.6675-1.1639-4.8092a3.9855,3.9855,0,0,0-2.7892-1.0322,3.4794,3.4794,0,0,0-2.8549,1.2077v-1.076h-2.767V102.237h2.8549V97.0321a3.3834,3.3834,0,0,0,2.767,1.142,3.9855,3.9855,0,0,0,2.7892-1.0322c1.142-1.142,1.1639-3.1183,1.1639-4.8315m-15.1531,0A3.925,3.925,0,0,1,339.627,95.1a1.8059,1.8059,0,0,1-1.34.5052A1.7539,1.7539,0,0,1,336.97,95.1a3.9245,3.9245,0,0,1-.6588-2.7892,3.8635,3.8635,0,0,1,.6588-2.7669,1.7539,1.7539,0,0,1,1.3178-.5052,1.8059,1.8059,0,0,1,1.34.5052,3.864,3.864,0,0,1,.6587,2.7669m2.8549,0c0-2.0641-.2633-3.36-1.2956-4.436a4.7428,4.7428,0,0,0-3.5577-1.4054,4.6893,4.6893,0,0,0-3.5359,1.4054c-1.0322,1.076-1.2955,2.3719-1.2955,4.436,0,2.0864.2633,3.3823,1.2955,4.4583a4.6893,4.6893,0,0,0,3.5359,1.4054,4.7428,4.7428,0,0,0,3.5577-1.4054c1.0323-1.076,1.2956-2.3719,1.2956-4.4583m-14.78,0A3.9235,3.9235,0,0,1,327.702,95.1a1.8052,1.8052,0,0,1-1.34.5052,1.7529,1.7529,0,0,1-1.3174-.5052,3.923,3.923,0,0,1-.6588-2.7892,3.862,3.862,0,0,1,.6588-2.7669,1.7529,1.7529,0,0,1,1.3174-.5052,1.8052,1.8052,0,0,1,1.34.5052,3.8625,3.8625,0,0,1,.6587,2.7669m2.8552,0c0-2.0641-.2637-3.36-1.2959-4.436a4.7426,4.7426,0,0,0-3.5578-1.4054,4.6878,4.6878,0,0,0-3.5355,1.4054c-1.0322,1.076-1.2959,2.3719-1.2959,4.436,0,2.0864.2637,3.3823,1.2959,4.4583a4.6878,4.6878,0,0,0,3.5355,1.4054,4.7426,4.7426,0,0,0,3.5578-1.4054c1.0322-1.076,1.2959-2.3719,1.2959-4.4583m-11.4637,5.732V95.3192h-7.0935V82.4061h-3.0526V98.0424ZM306.4878,90.444h-6.7639v2.6572h6.7639Zm-11.9028.8123h-4.3482a3.1563,3.1563,0,0,1,.2634-1.23,2.132,2.132,0,0,1,3.8214,0,3.1563,3.1563,0,0,1,.2634,1.23m2.8111,1.9547V91.9373c0-3.14-1.8008-5.4683-4.985-5.4683-2.965,0-4.9854,2.1082-4.9854,5.8414,0,4.6338,2.5915,5.8637,5.2925,5.8637a5.4487,5.4487,0,0,0,4.3485-1.8007l-1.7351-1.691a3.166,3.166,0,0,1-2.5912,1.076,2.3627,2.3627,0,0,1-2.5036-2.5474Zm-12.4737,4.8314v-7.401c0-2.4158-1.3175-4.1724-3.8211-4.1724a3.7805,3.7805,0,0,0-2.7451,1.1858V82.4061h-2.8549V98.0424h2.8549V91.0586a1.8624,1.8624,0,1,1,3.7113,0v6.9838Zm-12.0123,0V95.6267h-1.0322c-.681,0-.9885-.3735-.9885-1.0322v-5.49H272.91V86.93h-2.0207V83.5481h-2.8548V86.93h-1.2078v2.1743h1.2078V94.77a3.1031,3.1031,0,0,0,3.3162,3.2721Zm-8.0379-7.5984h-6.7639v2.6572h6.7639Zm-9.5309,7.5984V90.7293a4.24,4.24,0,0,0-1.1639-3.25,3.7154,3.7154,0,0,0-2.7013-1.01,3.9157,3.9157,0,0,0-2.8549,1.1858V86.6007H245.832V98.0424h2.8549V91.1246a1.9081,1.9081,0,1,1,3.7995,0v6.9178ZM242.67,82.3182H239.749V84.646H242.67Zm-.0222,4.2825h-2.8549V98.0424h2.8549Zm-5.7536,3.8433H230.13v2.6572h6.7639Zm-9.5312,7.5984V90.7293a4.24,4.24,0,0,0-1.1639-3.25,3.715,3.715,0,0,0-2.701-1.01,3.9172,3.9172,0,0,0-2.8552,1.1858V86.6007h-2.7889V98.0424h2.8549V91.1246a1.908,1.908,0,1,1,3.7992,0v6.9178Zm-15.4383-4.2165a1.881,1.881,0,0,1-.4173,1.45,2.2637,2.2637,0,0,1-1.8008.549c-1.12,0-1.6472-.5271-1.6472-1.3178,0-.8123.5709-1.2956,1.6031-1.2956h2.2622Zm2.8549,4.2165V90.51c0-2.6791-1.6691-4.0407-4.8756-4.0407a4.81,4.81,0,0,0-4.1286,1.5812l1.8227,1.7788a2.4561,2.4561,0,0,1,2.1961-.9443c1.5155,0,2.1305.549,2.1305,1.8008v.5708h-2.7013c-2.6572,0-3.909,1.4936-3.909,3.3163a3.6651,3.6651,0,0,0,.9443,2.5693,3.9016,3.9016,0,0,0,2.9209,1.01,3.4768,3.4768,0,0,0,2.8108-1.0979v.9881Zm-11.7271,0V90.7293a4.3134,4.3134,0,0,0-1.2518-3.25,3.9906,3.9906,0,0,0-2.8111-1.01,4.3634,4.3634,0,0,0-3.426,1.45,3.5434,3.5434,0,0,0-3.03-1.45,4.0052,4.0052,0,0,0-2.8552,1.1858V86.6007H186.889V98.0424h2.8549V91.1246a1.908,1.908,0,1,1,3.7992,0v6.9178h2.8549V91.0586a1.9058,1.9058,0,1,1,3.7995.066v6.9178Zm-19.37,0V86.6007h-2.8552v6.9178a1.908,1.908,0,1,1-3.7992,0V86.6007h-2.8549v7.3131a4.24,4.24,0,0,0,1.1639,3.25,3.7155,3.7155,0,0,0,2.7014,1.01,3.9157,3.9157,0,0,0,2.8548-1.1858v1.0541Zm-12.8033,0V82.4061h-3.0526v6.3907h-5.2928V82.4061h-3.0526V98.0424h3.0526V91.4981h5.2928v6.5443Zm-19.7866,0v-7.401c0-2.4158-1.3178-4.1724-3.8214-4.1724a3.7817,3.7817,0,0,0-2.7451,1.1858V82.4061h-2.8549V98.0424h2.8549V91.0586a1.8625,1.8625,0,1,1,3.7117,0v6.9838Zm-12.0126,0V95.6267h-1.0322c-.6807,0-.9881-.3735-.9881-1.0322v-5.49h2.02V86.93h-2.02V83.5481h-2.8549V86.93h-1.208v2.1743h1.208V94.77a3.1029,3.1029,0,0,0,3.3159,3.2721Zm-8.301-15.7242h-2.9209V84.646h2.9209Zm-.0222,4.2825h-2.8549V98.0424h2.8549Zm-4.5455,0h-3.0088l-1.8446,7.0713-2.35-7.0713h-2.086L114.594,93.672,112.75,86.6007h-3.0307l3.5136,11.4417h2.35l2.3938-7.1811,2.3935,7.1811h2.35Z" style="fill: #00305d"></path> <path d="M367.3854,71.6892V69.2734h-1.0322c-.6806,0-.9881-.3735-.9881-1.0322v-5.49h2.02V60.5768h-2.02v-3.382H362.51v3.382h-1.208V62.751h1.208v5.666a3.103,3.103,0,0,0,3.316,3.2722ZM356.8,64.903h-4.3481a3.1512,3.1512,0,0,1,.2633-1.23,2.132,2.132,0,0,1,3.8211,0,3.15,3.15,0,0,1,.2637,1.23m2.8112,1.9547V65.584c0-3.1405-1.8008-5.4683-4.9854-5.4683-2.9647,0-4.985,2.1082-4.985,5.8415,0,4.6337,2.5912,5.8636,5.2925,5.8636a5.4491,5.4491,0,0,0,4.3484-1.8007l-1.735-1.691a3.1669,3.1669,0,0,1-2.5915,1.076,2.3626,2.3626,0,0,1-2.5033-2.5474Zm-12.4741,4.8315V64.376a4.24,4.24,0,0,0-1.1639-3.25,3.7157,3.7157,0,0,0-2.7013-1.01,3.9149,3.9149,0,0,0-2.8549,1.1858V60.2474h-2.7892V71.6892h2.8552V64.7714a1.908,1.908,0,1,1,3.7992,0v6.9178ZM336.0036,61.1917a3.4509,3.4509,0,0,0-2.7014-1.076,3.8735,3.8735,0,0,0-2.8767,1.23V60.2474h-2.7892V71.6892h2.8552v-6.896a1.9085,1.9085,0,0,1,3.36-1.4272ZM322.19,64.903H317.842a3.1566,3.1566,0,0,1,.2634-1.23,2.1323,2.1323,0,0,1,3.8214,0,3.1566,3.1566,0,0,1,.2634,1.23m2.8111,1.9547V65.584c0-3.1405-1.8008-5.4683-4.9851-5.4683-2.965,0-4.9853,2.1082-4.9853,5.8415,0,4.6337,2.5915,5.8636,5.2925,5.8636a5.4487,5.4487,0,0,0,4.3485-1.8007l-1.7351-1.691a3.1657,3.1657,0,0,1-2.5912,1.076,2.3628,2.3628,0,0,1-2.5036-2.5474Zm-11.9247,4.8315V69.2734h-1.0323c-.6809,0-.9884-.3735-.9884-1.0322v-5.49h2.0207V60.5768h-2.0207v-3.382H308.201v3.382h-1.2077V62.751h1.2077v5.666a3.1033,3.1033,0,0,0,3.3163,3.2722Zm-8.2134,0V64.376a4.24,4.24,0,0,0-1.1643-3.25,3.7148,3.7148,0,0,0-2.701-1.01,3.9145,3.9145,0,0,0-2.8548,1.1858V60.2474h-2.7893V71.6892h2.8549V64.7714a1.908,1.908,0,1,1,3.7993,0v6.9178ZM291.9281,56.0528h-3.0526V71.6891h3.0526Zm-13.8131,8.85h-4.3485a3.1513,3.1513,0,0,1,.2637-1.23,2.1321,2.1321,0,0,1,3.8212,0,3.1585,3.1585,0,0,1,.2636,1.23m2.8108,1.9547V65.584c0-3.1405-1.8008-5.4683-4.985-5.4683-2.9647,0-4.9854,2.1082-4.9854,5.8415,0,4.6337,2.5916,5.8636,5.2929,5.8636a5.4488,5.4488,0,0,0,4.3482-1.8007l-1.7348-1.691a3.1669,3.1669,0,0,1-2.5915,1.076,2.3629,2.3629,0,0,1-2.5037-2.5474Zm-11.1343,4.8315V69.2734h-1.0979c-.7247,0-1.01-.3516-1.01-1.0322V56.0528h-2.8549V68.417a3.1093,3.1093,0,0,0,3.3382,3.2722Zm-8.0157-15.7243h-2.9209v2.3278h2.9209Zm-.0219,4.2825H258.899V71.6891h2.8549Zm-5.4461,11.4418V69.2734h-1.0322c-.6806,0-.9881-.3735-.9881-1.0322v-5.49h2.02V60.5768h-2.02v-3.382h-2.8552v3.382h-1.2077V62.751h1.2077v5.666a3.1032,3.1032,0,0,0,3.3162,3.2722Zm-7.3569-1.4277-1.9325-1.91a2.3109,2.3109,0,0,1-1.8449.9,1.98,1.98,0,0,1-1.6249-.7469,3.9448,3.9448,0,0,1-.6369-2.5474,3.8762,3.8762,0,0,1,.6369-2.5256,1.98,1.98,0,0,1,1.6249-.7466,2.3109,2.3109,0,0,1,1.8449.9005l1.9325-1.9327a4.8737,4.8737,0,0,0-3.7774-1.5371c-2.284,0-5.117,1.2077-5.117,5.8415s2.833,5.8636,5.117,5.8636a4.89,4.89,0,0,0,3.7774-1.5593m-14.2526-2.7888a1.88,1.88,0,0,1-.4173,1.4491,2.2625,2.2625,0,0,1-1.8007.5493c-1.12,0-1.6472-.527-1.6472-1.3178,0-.8126.5708-1.2956,1.6031-1.2956h2.2621Zm2.8549,4.2165V64.1564c0-2.6791-1.6691-4.0407-4.8755-4.0407a4.81,4.81,0,0,0-4.1286,1.5812l1.8226,1.7789a2.4561,2.4561,0,0,1,2.1962-.9444c1.5155,0,2.13.549,2.13,1.8008v.5708H231.997c-2.6572,0-3.909,1.4933-3.909,3.3163a3.6659,3.6659,0,0,0,.9443,2.5693,3.9017,3.9017,0,0,0,2.9209,1.01,3.4759,3.4759,0,0,0,2.8108-1.0982v.9885ZM228.0877,58.776V56.0528H216.8658V58.776H220.95V71.6892h3.0529V58.776ZM211.09,61.1917a3.451,3.451,0,0,0-2.7013-1.076,3.8732,3.8732,0,0,0-2.8768,1.23V60.2474H202.723V71.6892h2.8549v-6.896a1.9086,1.9086,0,0,1,3.36-1.4272ZM197.145,65.9572a3.9237,3.9237,0,0,1-.6588,2.7892,1.8053,1.8053,0,0,1-1.34.5051,1.7537,1.7537,0,0,1-1.3175-.5051,3.9237,3.9237,0,0,1-.6591-2.7892,3.8623,3.8623,0,0,1,.6591-2.767,1.7533,1.7533,0,0,1,1.3175-.5052,1.8049,1.8049,0,0,1,1.34.5052,3.8623,3.8623,0,0,1,.6588,2.767m2.8548,0c0-2.0642-.2633-3.36-1.2956-4.4361a4.7428,4.7428,0,0,0-3.5577-1.4054,4.6876,4.6876,0,0,0-3.5355,1.4054c-1.0323,1.076-1.2959,2.3719-1.2959,4.4361,0,2.0863.2636,3.3819,1.2959,4.4582a4.6876,4.6876,0,0,0,3.5355,1.4054,4.7428,4.7428,0,0,0,3.5577-1.4054C199.7365,69.3391,200,68.0435,200,65.9572M188.9535,62.751V60.5768h-2.1083V59.3249c0-.6587.3075-1.0322.9881-1.0322h1.12V55.877h-1.6253a3.1212,3.1212,0,0,0-3.3379,3.2722v1.4276h-1.1861V62.751H183.99v8.9382h2.8549V62.751Zm-15.8557,2.152H168.75a3.1566,3.1566,0,0,1,.2634-1.23,2.1324,2.1324,0,0,1,3.8215,0,3.1584,3.1584,0,0,1,.2633,1.23m2.8111,1.9547V65.584c0-3.1405-1.8008-5.4683-4.9853-5.4683-2.9647,0-4.9851,2.1082-4.9851,5.8415,0,4.6337,2.5916,5.8636,5.2926,5.8636A5.449,5.449,0,0,0,175.58,70.02l-1.7351-1.691a3.1667,3.1667,0,0,1-2.5912,1.076,2.3628,2.3628,0,0,1-2.5037-2.5474Zm-10.3435-5.666a3.4513,3.4513,0,0,0-2.7013-1.076,3.873,3.873,0,0,0-2.8768,1.23V60.2474h-2.7892V71.6892h2.8549v-6.896a1.9085,1.9085,0,0,1,3.36-1.4272ZM154.6069,71.6892V69.2734h-1.0322c-.6807,0-.9882-.3735-.9882-1.0322v-5.49h2.02V60.5768h-2.02v-3.382h-2.8549v3.382h-1.208V62.751h1.208v5.666a3.103,3.103,0,0,0,3.316,3.2722Zm-8.2134,0V64.376a4.24,4.24,0,0,0-1.1639-3.25,3.7158,3.7158,0,0,0-2.7013-1.01,3.9147,3.9147,0,0,0-2.8549,1.1858V60.2474h-2.7892V71.6892h2.8552V64.7714a1.908,1.908,0,1,1,3.7992,0v6.9178ZM131.4381,64.903H127.09a3.1513,3.1513,0,0,1,.2637-1.23,2.132,2.132,0,0,1,3.8211,0,3.1512,3.1512,0,0,1,.2634,1.23m2.8111,1.9547V65.584c0-3.1405-1.8008-5.4683-4.985-5.4683-2.965,0-4.9854,2.1082-4.9854,5.8415,0,4.6337,2.5915,5.8636,5.2928,5.8636A5.4485,5.4485,0,0,0,133.92,70.02l-1.7351-1.691a3.1657,3.1657,0,0,1-2.5912,1.076,2.3629,2.3629,0,0,1-2.5036-2.5474Zm-11.8149.0219h-3.0964a2.5772,2.5772,0,0,1-2.6356,2.218,2.4131,2.4131,0,0,1-1.9544-.8126c-.6368-.6807-.7685-1.3835-.7685-4.4142s.1317-3.7332.7685-4.4142a2.4141,2.4141,0,0,1,1.9544-.8123,2.5772,2.5772,0,0,1,2.6356,2.218h3.0964a5.51,5.51,0,0,0-5.7539-4.9412,5.73,5.73,0,0,0-4.2165,1.7129,4.443,4.443,0,0,0-1.2737,2.35,21.323,21.323,0,0,0-.2637,3.8871,21.3184,21.3184,0,0,0,.2637,3.8871,4.5257,4.5257,0,0,0,1.2737,2.35,5.73,5.73,0,0,0,4.2165,1.7128,5.5237,5.5237,0,0,0,5.7539-4.9412" style="fill: #00305d"></path> </g> <g> <polygon points="0 77.474 20.39 89.03 43.693 75.823 43.693 52.711 0 77.474" style="fill: #2f6696"></polygon> <polygon points="66.995 13.207 43.693 26.414 43.693 49.526 87.385 24.763 66.995 13.207" style="fill: #afc410"></polygon> <polygon points="0 77.474 20.39 89.03 20.39 65.917 0 77.474" style="fill: #2f6696"></polygon> <g style="opacity: 0.199996992945671"> <polygon points="87.385 24.763 66.996 36.319 66.996 13.207 87.385 24.763" style="fill: #00959e"></polygon> </g> <polygon points="64.082 11.556 43.693 0 43.693 0 0 24.763 20.39 36.32 43.693 23.112 43.693 23.112 64.082 11.556" style="fill: #84cfed"></polygon> <polygon points="43.693 102.237 87.385 77.474 66.996 65.918 43.693 79.125 43.693 79.125 23.303 90.681 43.693 102.237 43.693 102.237" style="fill: #00959e"></polygon> <g> <g style="opacity: 0.199996992945671"> <polygon points="0 77.474 20.39 89.03 20.39 65.918 0 77.474" style="fill: #84cfed"></polygon> </g> <g style="opacity: 0.199996992945671"> <polygon points="87.385 24.763 66.996 36.319 66.996 13.207 87.385 24.763" style="fill: #00959e"></polygon> </g> </g> <polygon points="87.385 77.474 87.385 24.763 66.995 36.319 66.995 65.918 87.385 77.474" style="fill: #00959e"></polygon> <polygon points="0 77.474 20.39 65.917 20.39 36.32 0 24.763 0 77.474" style="fill: #2f6696"></polygon> <g> <g style="opacity: 0.5"> <polygon points="87.385 77.474 87.385 24.763 66.995 36.319 66.995 65.918 87.385 77.474" style="fill: #94bd55"></polygon> </g> <g style="opacity: 0.5"> <polygon points="20.39 65.918 20.39 36.319 0 24.763 0 77.474 20.39 65.918" style="fill: #84cfed"></polygon> </g> </g> </g> </svg> 